# xmcd CD database file
#
# Track frame offsets:
#	150
#	21195
#	41971
#	62115
#	78547
#	95814
#	120991
#	138539
#	158007
#	186527
#
# Disc length: 2758 seconds
#
# Revision: 0
# Processed by: cddbd v1.5.2PL0 Copyright (c) Steve Scherf et al.
# Submitted via: CDex 1.99.1
#
DISCID=8d0ac40a
DTITLE=Biscuit Miller and The Mix - Chicken Grease
DYEAR=2019
DGENRE=Blues
TTITLE0=Here Kitty Kitty
TTITLE1=609
TTITLE2=Lonely Road
TTITLE3=Two Legged Dog
TTITLE4=Chicken Grease
TTITLE5=Watching You
TTITLE6=Take a Ride
TTITLE7=Southern Woman
TTITLE8=Creeping
TTITLE9=Get Ready
EXTD=YEAR: 2019
EXTT0=
EXTT1=
EXTT2=
EXTT3=
EXTT4=
EXTT5=
EXTT6=
EXTT7=
EXTT8=
EXTT9=
PLAYORDER=
